<svg fill="none" height="812" viewBox="0 0 375 812" width="375" xmlns="http://www.w3.org/2000/svg" xmlns:xlink="http://www.w3.org/1999/xlink"><linearGradient id="a" gradientUnits="userSpaceOnUse" x1="187.5" x2="187.5" y1="0" y2="812"><stop offset="0" stop-color="#ff544f"/><stop offset="1" stop-color="#faed8c"/></linearGradient><linearGradient id="b"><stop offset=".380208" stop-color="#ffc895"/><stop offset="1" stop-color="#ff6355" stop-opacity="0"/></linearGradient><linearGradient id="c" gradientUnits="userSpaceOnUse" x1="90" x2="90" xlink:href="#b" y1="76" y2="204.266"/><linearGradient id="d" gradientUnits="userSpaceOnUse" x1="284.842" x2="284.842" xlink:href="#b" y1="76" y2="204.266"/><linearGradient id="e"><stop offset="0" stop-color="#ffe9b0"/><stop offset="1" stop-color="#ffb979"/></linearGradient><radialGradient id="f" cx="0" cy="0" gradientTransform="matrix(128.5804777 40.99990776 -133.73220309 419.39973758 130.572 130)" gradientUnits="userSpaceOnUse" r="1" xlink:href="#e"/><radialGradient id="g" cx="0" cy="0" gradientTransform="matrix(144.50027918 47.99994805 -161.82801799 487.171231 124.5 72)" gradientUnits="userSpaceOnUse" r="1" xlink:href="#e"/><clipPath id="h"><path d="m0 0h375v812h-375z"/></clipPath><mask id="i" fill="#000" height="53" maskUnits="userSpaceOnUse" width="156" x="110" y="122"><path d="m110 122h156v53h-156z" fill="#fff"/><path d="m140.741 169.798h-10.002v-5.743l1.568 1.136h4.413l3.53-5.61h-9.462v-4.206h1.225v-14.29l-.686-1.603h19.808l1.177-3.072h-15.298l-.735 2.137h-5.639l2.746-7.211-.931-1.336h6.864l-.687 1.87h20.838l-2.795 7.612h3.089v15.893h1.177v4.206h-8.384l2.402 5.61h5.982v5.809c-.164-.49-.425-.801-.785-.935-.327-.178-.637-.267-.931-.267h-8.728l-4.069-9.148zm-11.866-27.645c-.163-.579-.425-.935-.784-1.068-.327-.178-.637-.267-.932-.267h-1.323v11.618l1.667-.467 1.372-1.87v7.746l-3.039.868v11.085h-7.502l1.226-1.803v-7.612l-2.991.801-1.569 1.402v-7.078l4.56-1.269v-13.421h-4.56v-5.743l1.52 1.068h3.04v-4.674l-.883-1.269h7.159v5.943h3.039zm24.564 2.003h-4.658v11.219h4.658zm-10.933 0h-4.217v11.219h4.217z" fill="#000"/><path d="m208.794 136.477c-.131-.579-.327-.957-.589-1.135-.261-.178-.539-.245-.833-.2l-10.591.667-.049 6.211h13.287v5.609c-.196-.535-.425-.891-.686-1.069-.229-.178-.49-.267-.784-.267h-1.864l-.049 24.039h-6.177v-23.972h-3.727v23.972h-7.55l1.324-1.803v-37.728l1.52 1.069 16.768-1.069zm-30.105 3.005h7.159l-.883 1.269-1.127 2.671h4.657v5.609c-.163-.534-.375-.89-.637-1.068-.261-.179-.539-.268-.833-.268l-7.845.067v2.738h8.482v5.676c-.164-.579-.376-.957-.637-1.135-.229-.178-.491-.267-.785-.267h-7.06l-.049 15.558h-7.551l1.226-1.803.049-13.755h-8.384v-5.342l1.52 1.068h6.864l.049-2.738h-8.923v-5.475l1.52 1.135h2.402l-1.03-2.671-.931-1.269h7.158l1.471 3.94h2.55zm9.071-.868c-.131-.49-.327-.824-.588-1.002-.262-.222-.54-.333-.834-.333h-22.357v-5.409l1.569 1.202h7.256v-1.136l-.883-1.268h7.159v2.404h8.678zm-18.729 31.05h-4.854l1.863-10.684-.932-1.402h6.619zm11.522-12.086h6.324l-1.078 1.469 1.569 10.617h-4.952z" fill="#000"/><path d="m258.951 137.813c-.131-.534-.376-.891-.735-1.069-.36-.178-.687-.267-.981-.267h-5.246l-1.52 3.406h8.384v19.565h-4.168v-14.958h-10.933v14.223l3.53-9.415-.883-1.269h7.208l-8.482 22.236h-5.737l4.07-10.817h-3.923v-18.23l-.882-1.335h6.275l1.422-3.406h-6.962v-5.742l1.569 1.135h17.994zm-29.565 2.337h7.453l-1.177 1.269-.736 2.871h2.305v5.208c-.131-.578-.392-.934-.785-1.068-.392-.178-.735-.267-1.029-.267h-16.474v22.102h-5.884l1.52-3.004v-24.106l1.569 1.135h.687l-.687-2.871-1.177-1.269h7.453l.98 4.14h5.002zm8.874-.601c-.163-.579-.441-.935-.833-1.069-.36-.178-.686-.267-.981-.267h-23.387v-5.075l1.569 1.136h7.943v-2.271l-.883-1.268h7.453v3.539h9.119zm-1.323 28.847c-.164-.534-.425-.868-.785-1.002-.359-.133-.703-.178-1.029-.133l-15.053 1.803v-5.075l1.618.934 15.249-1.802zm0-13.021c-.164-.49-.425-.802-.785-.935-.359-.134-.703-.178-1.029-.134l-15.053 1.803v-5.075l1.618 1.002 15.249-1.87zm0 6.477c-.164-.49-.425-.802-.785-.935-.359-.178-.703-.245-1.029-.2l-15.053 1.869v-5.008l1.618.868 15.249-1.803zm16.327 8.413-4.364-9.014h7.158l-.882 1.335 3.824 7.679z" fill="#000"/></mask><mask id="j" fill="#000" height="56" maskUnits="userSpaceOnUse" width="171" x="102" y="68"><path d="m102 68h171v56h-171z" fill="#fff"/><path d="m136.458 80.5993h-6.167v20.7947l5.286-1.094 1.597-2.1892v7.6612l-12.169 2.189-1.762 1.642v-32.9124l-.991-1.4854h10.132l1.266-2.1889-1.211-1.0163h8.975l-2.147 3.6743h19.106v32.3647h-6.057c-.33 0-.715.104-1.156.313-.404.208-.679.625-.826 1.251v-6.88h1.046v-21.7328h-5.176v32.2088h12.445v6.801c-.184-.573-.478-.938-.881-1.094-.404-.209-.771-.313-1.102-.313h-45.702l1.377-2.189v-21.8893h-5.341v-6.7232l1.762 1.329h10.627v24.0785h19.767v-35.7267l-.44-.7817zm-14.426 5.1597h-7.048l-3.909-9.6938-.992-1.4854h7.709z" fill="#000"/><path d="m213.271 72.9381v46.0459h-50.052v-44.2478l-.771-1.7981zm-6.993 5.4723h-36.011v35.6486h36.011zm-1.432 35.1006c-.184-.625-.477-1.042-.881-1.25-.404-.209-.771-.313-1.101-.313h-31.055v-6.723l1.706 1.329h10.958v-7.6615h-12.664v-6.6449l1.706 1.3289h10.958v-7.5048h-12.664v-6.645l1.706 1.329h31.331v6.8795c-.184-.6254-.477-1.0424-.881-1.2508-.404-.2085-.771-.3127-1.101-.3127h-11.398v7.5048h13.38v6.8795c-.184-.6775-.477-1.0944-.881-1.2508-.404-.2085-.771-.3127-1.101-.3127h-11.398v7.6615h5.451l-3.304-5.629h8.59l-.936 1.876 2.313 3.753h1.266z" fill="#000"/><path d="m223.787 119.14h-6.662l4.185-38.9315-.991-1.6417h21.749v-4.1433l-.991-1.5636h8.039v5.7069h19.658v6.8795c-.184-.6255-.478-1.0163-.881-1.1727-.404-.2085-.753-.3127-1.047-.3127h-38.984zm44.876-19.2312c-.146-.6775-.44-1.0945-.881-1.2508-.403-.2085-.77-.3127-1.101-.3127h-15.693l-8.975 20.7947h-14.096v-6.723l1.762 1.329h6.883l6.663-15.4007h-14.537v-6.645l1.652 1.329h13.986v-4.7687l-.991-1.4854h8.039v6.2541h17.289zm-19.492 3.1272h8.59l-.991 1.485 4.35 9.147h5.947l1.762-1.329v6.723h-12.224z" fill="#000"/></mask><g clip-path="url(#h)"><path d="m0 0h375v812h-375z" fill="#f8f8f8"/><path d="m0 0h375v812h-375z" fill="url(#a)"/><path d="m94 709c-18-40-71.3333-65.333-93.5-68v174h376.5v-509s-24.5 41-24.5 100c-34.5 25-31.5 82-23 96.5-25.5 18.5-23.53 52.528 11 90.5-69 75.5-33.5 111-44.5 136.5-8.8 20.4-40.208-18.167-54.813-40-51.187-64.5-85.257-81.078-67.187 19.5-20.223-33.683-77-35-80 0z" fill="#fbebe1"/><path clip-rule="evenodd" d="m291.5 814s63.833.667 85.5 0v-379c-6.075 1.984-12.5 58-3.612 117 0 2.971-2.281 5.801-5.185 9.402-9.313 11.551-25.027 31.042 7.611 88.598-21.783 18.331-50.314 64-44.875 83s4.925 56.983-15.439 61.953c-18.031 4.401-22.319 14.985-23.621 18.199-.169.416-.287.708-.379.848zm-291.5-38c16.3333 5.333 54.3 24.5 63.5 38.5 0 0-41.8333.667-63.5 0z" fill="#fadfc2" fill-rule="evenodd"/><g stroke-linecap="round"><path d="m247.761 396.546c.455.607.91 1.213 1.365 1.82" stroke="#ff5732" stroke-linejoin="round"/><path d="m251.501 397.175c.188.503.257.859.257 1.284" stroke="#ff5732" stroke-linejoin="round"/><path d="m255.777 396c.049.306.101.601.101.91" stroke="#ff5732" stroke-linejoin="round"/><path d="m254.462 399.336c0 .154 0 .842 0 .809" stroke="#ff5732" stroke-linejoin="round"/><path d="m259.82 397.011c-.008.339-.101 1.35-.101 1.011" stroke="#ff5732" stroke-linejoin="round"/><path d="m259.82 400.954c-.07.32-.166.636-.303.91" stroke="#ff5732" stroke-linejoin="round"/><path d="m264.572 398.224c-.118.291-.303.59-.303.91" stroke="#ff5732" stroke-linejoin="round"/><path d="m263.258 401.055c-.109.334-.219.672-.304 1.011" stroke="#ff5732" stroke-linejoin="round"/><path d="m266.291 403.987c-.211.278-.498.754-.809.909" stroke="#ff5732" stroke-linejoin="round"/><path d="m268.11 400.752c-.137.235-.254.483-.404.707" stroke="#ff5732" stroke-linejoin="round"/><path d="m270.638 406.716c-.201.032-1.179.372-1.315.101" stroke="#ff5732" stroke-linejoin="round"/><path d="m267.302 409.041c-.338.065-1.007.256-1.315.102" stroke="#ff5732" stroke-linejoin="round"/><path d="m262.146 404.998c-.174.21-.506.419-.506.707" stroke="#ff5732" stroke-linejoin="round"/><path d="m261.943 407.323c-.223.294-.507.509-.707.809" stroke="#ff5732" stroke-linejoin="round"/><path d="m258.001 406.817c-.04.203-.072.403-.101.607" stroke="#ff5732" stroke-linejoin="round"/><path d="m254.867 402.268c.051.317.083.614.202.91" stroke="#ff5732" stroke-linejoin="round"/><path d="m248.396 401.156c.083.378.229.736.304 1.112" stroke="#ff5732" stroke-linejoin="round"/><path d="m245.364 399.235c.161.195.396.389.505.607" stroke="#ff5732" stroke-linejoin="round"/><path d="m244.353 402.066c.195.243.386.487.606.707" stroke="#ff5732" stroke-linejoin="round"/><path d="m241.926 402.875c.043.053.708.827.708.707" stroke="#ff5732" stroke-linejoin="round"/><path d="m239.904 407.323c.149.058 1.179.387 1.011.303" stroke="#ff5732" stroke-linejoin="round"/><path d="m243.948 406.615c.425.425.536.417 1.045.607.256.095.402.101.067.101" stroke="#ff5732" stroke-linejoin="round"/><path d="m249.812 405.301c.385.283.767.63 1.213.809" stroke="#ff5732" stroke-linejoin="round"/><path d="m252.744 404.391c.008.327.063.53.202.809" stroke="#ff5732" stroke-linejoin="round"/><path d="m253.148 407.626c.233.289.545.585.708.91" stroke="#ff5732" stroke-linejoin="round"/><path d="m247.487 409.85c.46 0 .871-.009 1.314.101" stroke="#ff5732" stroke-linejoin="round"/><path d="m249.509 411.468c.527-.085 1.082-.202 1.617-.202" stroke="#ff5732" stroke-linejoin="round"/><path d="m244.353 410.457c.306 0 1.639 0 .606 0" stroke="#ff5732" stroke-linejoin="round"/><path d="m239.5 412.277h1.112" stroke="#ff5732" stroke-linejoin="round"/><path d="m242.634 413.692c.385 0 .749-.101 1.112-.101" stroke="#ff5732" stroke-linejoin="round"/><path d="m246.981 412.984c.13 0 1.533.101.91.101" stroke="#ff5732" stroke-linejoin="round"/><path d="m240.713 417.938c.091-.053 1.122-.68.708-.404" stroke="#ff5732" stroke-linejoin="round"/><path d="m244.353 418.241c.254-.185.517-.353.82-.449.108-.034.603-.059.292.045" stroke="#ff5732" stroke-linejoin="round"/><path d="m246.273 416.624c.441-.197.883-.391 1.315-.607" stroke="#ff5732" stroke-linejoin="round"/><path d="m249.711 414.804c.341-.065.675-.202 1.011-.202" stroke="#ff5732" stroke-linejoin="round"/><path d="m251.834 413.995c.412-.007.806-.101 1.213-.101" stroke="#ff5732" stroke-linejoin="round"/><path d="m251.531 416.523c.229-.168.451-.273.606-.506" stroke="#ff5732" stroke-linejoin="round"/><path d="m254.26 414.4c.2-.04.614-.016.708-.203" stroke="#ff5732" stroke-linejoin="round"/><path d="m253.35 410.861c.066.3.136.558.304.809" stroke="#ff5732" stroke-linejoin="round"/><path d="m256.08 409.446c-.089.21-.205.41-.303.606" stroke="#ff5732" stroke-linejoin="round"/><path d="m259.517 410.659c-.257.319-.388.544-.786.629-.168.036-.289.088-.427.18" stroke="#ff5732" stroke-linejoin="round"/><path d="m263.763 413.186c.229-.005 1.272-.287 1.416 0" stroke="#ff5732" stroke-linejoin="round"/><path d="m267.403 413.389c.578-.07 1.138-.101 1.718-.101" stroke="#ff5732" stroke-linejoin="round"/><path d="m270.638 411.266c.386-.076.722-.102 1.112-.102" stroke="#ff5732" stroke-linejoin="round"/><path d="m270.233 415.916h1.921" stroke="#ff5732" stroke-linejoin="round"/><path d="m265.583 418.342c.452.148 1.14.607 1.617.607" stroke="#ff5732" stroke-linejoin="round"/><path d="m269.93 420.668c.438.148.858.328 1.314.404" stroke="#ff5732" stroke-linejoin="round"/><path d="m266.189 422.083c.27.132.554.277.809.404" stroke="#ff5732" stroke-linejoin="round"/><path d="m266.088 425.116c.261.158.525.41.809.505" stroke="#ff5732" stroke-linejoin="round"/><path d="m261.741 421.375c.173.235.322.613.607.708" stroke="#ff5732" stroke-linejoin="round"/><path d="m261.034 417.23c.464.603.717.981 1.415 1.213" stroke="#ff5732" stroke-linejoin="round"/><path d="m260.124 414.298h.91" stroke="#ff5732" stroke-linejoin="round"/><path d="m256.484 416.118c.349-.068.66-.101 1.011-.101" stroke="#ff5732" stroke-linejoin="round"/><path d="m254.361 416.725c.282-.051.538-.121.809-.202" stroke="#ff5732" stroke-linejoin="round"/><path d="m253.856 418.949c-.083.375-.184.754-.304 1.112" stroke="#ff5732" stroke-linejoin="round"/><path d="m256.282 418.545c.112.191.209.508.404.606" stroke="#ff5732" stroke-linejoin="round"/><path d="m257.495 420.566v1.112" stroke="#ff5732" stroke-linejoin="round"/><path d="m256.99 424.206c.06.31.101.596.101.91" stroke="#ff5732" stroke-linejoin="round"/><path d="m260.124 425.217c.039.098.476 1.011.404 1.011" stroke="#ff5732" stroke-linejoin="round"/><path d="m263.561 428.149c.161.211.331.407.506.606" stroke="#ff5732" stroke-linejoin="round"/><path d="m258.203 428.654c.068.209.102.607.303.708" stroke="#ff5732" stroke-linejoin="round"/><path d="m255.271 428.957c-.053.274-.101.532-.101.809" stroke="#ff5732" stroke-linejoin="round"/><path d="m253.654 426.228c-.067.207-.112.915-.304 1.011" stroke="#ff5732" stroke-linejoin="round"/><path d="m252.036 428.654c0 .358-.101.68-.101 1.011" stroke="#ff5732" stroke-linejoin="round"/><path d="m250.216 423.599c-.046.235-.101.468-.101.708" stroke="#ff5732" stroke-linejoin="round"/><path d="m254.159 422.184c-.083.295-.202.6-.202.91" stroke="#ff5732" stroke-linejoin="round"/><path d="m250.014 420.263c-.2.28-.505.647-.505 1.011" stroke="#ff5732" stroke-linejoin="round"/><path d="m247.386 421.577c-.324.324-.589.69-.91 1.011" stroke="#ff5732" stroke-linejoin="round"/><path d="m245.364 425.318c-.127.306-.2.86-.506.708" stroke="#ff5732" stroke-linejoin="round"/><path d="m242.533 421.375c-.164.275-.314.554-.506.809" stroke="#ff5732" stroke-linejoin="round"/><path d="m297.957 343.89c.74.988 1.481 1.976 2.222 2.963" stroke="#ffc632" stroke-linejoin="round"/><path d="m304.048 344.914c.307.819.418 1.398.418 2.092" stroke="#ffc632" stroke-linejoin="round"/><path d="m311.012 343c.081.498.165.979.165 1.482" stroke="#ffc632" stroke-linejoin="round"/><path d="m308.871 348.434c0 .251 0 1.371 0 1.317" stroke="#ffc632" stroke-linejoin="round"/><path d="m317.599 344.647c-.014.551-.165 2.198-.165 1.646" stroke="#ffc632" stroke-linejoin="round"/><path d="m317.599 351.069c-.115.521-.271 1.036-.494 1.482" stroke="#ffc632" stroke-linejoin="round"/><path d="m325.338 346.623c-.191.473-.494.96-.494 1.482" stroke="#ffc632" stroke-linejoin="round"/><path d="m323.198 351.234c-.178.543-.356 1.094-.494 1.646" stroke="#ffc632" stroke-linejoin="round"/><path d="m328.138 356.009c-.343.453-.811 1.229-1.318 1.482" stroke="#ffc632" stroke-linejoin="round"/><path d="m331.102 350.74c-.225.383-.415.786-.659 1.152" stroke="#ffc632" stroke-linejoin="round"/><path d="m335.219 360.455c-.327.052-1.92.606-2.141.165" stroke="#ffc632" stroke-linejoin="round"/><path d="m329.785 364.243c-.55.104-1.639.415-2.141.164" stroke="#ffc632" stroke-linejoin="round"/><path d="m321.386 357.656c-.283.343-.823.682-.823 1.152" stroke="#ffc632" stroke-linejoin="round"/><path d="m321.057 361.443c-.363.479-.827.829-1.153 1.317" stroke="#ffc632" stroke-linejoin="round"/><path d="m314.635 360.62c-.065.329-.118.656-.165.988" stroke="#ffc632" stroke-linejoin="round"/><path d="m309.53 353.21c.084.516.136.999.329 1.482" stroke="#ffc632" stroke-linejoin="round"/><path d="m298.991 351.398c.135.616.372 1.199.494 1.812" stroke="#ffc632" stroke-linejoin="round"/><path d="m294.051 348.269c.262.318.646.633.823.988" stroke="#ffc632" stroke-linejoin="round"/><path d="m292.404 352.88c.319.396.629.794.988 1.153" stroke="#ffc632" stroke-linejoin="round"/><path d="m288.452 354.198c.07.086 1.153 1.348 1.153 1.152" stroke="#ffc632" stroke-linejoin="round"/><path d="m285.159 361.443c.242.095 1.92.631 1.646.494" stroke="#ffc632" stroke-linejoin="round"/><path d="m291.745 360.29c.693.692.873.68 1.702.988.418.156.655.165.11.165" stroke="#ffc632" stroke-linejoin="round"/><path d="m301.297 358.15c.626.461 1.249 1.027 1.976 1.317" stroke="#ffc632" stroke-linejoin="round"/><path d="m306.072 356.668c.013.532.103.864.329 1.317" stroke="#ffc632" stroke-linejoin="round"/><path d="m306.731 361.937c.378.471.888.953 1.152 1.482" stroke="#ffc632" stroke-linejoin="round"/><path d="m297.509 365.56c.75 0 1.42-.016 2.141.165" stroke="#ffc632" stroke-linejoin="round"/><path d="m300.802 368.195c.859-.138 1.763-.33 2.635-.33" stroke="#ffc632" stroke-linejoin="round"/><path d="m292.404 366.548c.499 0 2.67 0 .988 0" stroke="#ffc632" stroke-linejoin="round"/><path d="m284.5 369.512h1.811" stroke="#ffc632" stroke-linejoin="round"/><path d="m289.605 371.817c.627 0 1.219-.164 1.811-.164" stroke="#ffc632" stroke-linejoin="round"/><path d="m296.686 370.665c.211 0 2.496.164 1.482.164" stroke="#ffc632" stroke-linejoin="round"/><path d="m286.476 378.734c.149-.087 1.827-1.109 1.153-.659" stroke="#ffc632" stroke-linejoin="round"/><path d="m292.404 379.228c.414-.302.844-.576 1.336-.732.176-.056.983-.096.476.073" stroke="#ffc632" stroke-linejoin="round"/><path d="m295.533 376.593c.718-.32 1.437-.637 2.141-.988" stroke="#ffc632" stroke-linejoin="round"/><path d="m301.132 373.629c.556-.106 1.099-.33 1.647-.33" stroke="#ffc632" stroke-linejoin="round"/><path d="m304.59 372.311c.672-.011 1.313-.164 1.976-.164" stroke="#ffc632" stroke-linejoin="round"/><path d="m304.096 376.428c.374-.272.735-.443.988-.823" stroke="#ffc632" stroke-linejoin="round"/><path d="m308.542 372.97c.326-.064 1-.025 1.153-.329" stroke="#ffc632" stroke-linejoin="round"/><path d="m307.06 367.207c.107.488.221.908.494 1.317" stroke="#ffc632" stroke-linejoin="round"/><path d="m311.506 364.901c-.145.343-.334.669-.494.988" stroke="#ffc632" stroke-linejoin="round"/><path d="m317.105 366.877c-.418.52-.632.886-1.281 1.025-.274.059-.47.142-.695.293" stroke="#ffc632" stroke-linejoin="round"/><path d="m324.021 370.994c.373-.009 2.072-.468 2.305 0" stroke="#ffc632" stroke-linejoin="round"/><path d="m329.949 371.323c.942-.114 1.854-.164 2.8-.164" stroke="#ffc632" stroke-linejoin="round"/><path d="m335.219 367.865c.629-.123 1.177-.164 1.811-.164" stroke="#ffc632" stroke-linejoin="round"/><path d="m334.56 375.44h3.129" stroke="#ffc632" stroke-linejoin="round"/><path d="m326.985 379.392c.737.241 1.858.988 2.635.988" stroke="#ffc632" stroke-linejoin="round"/><path d="m334.066 383.18c.713.242 1.397.534 2.141.658" stroke="#ffc632" stroke-linejoin="round"/><path d="m327.973 385.485c.439.215.902.451 1.317.659" stroke="#ffc632" stroke-linejoin="round"/><path d="m327.808 390.425c.424.259.855.669 1.318.823" stroke="#ffc632" stroke-linejoin="round"/><path d="m320.728 384.332c.281.383.524.999.988 1.153" stroke="#ffc632" stroke-linejoin="round"/><path d="m319.575 377.581c.757.982 1.168 1.597 2.305 1.976" stroke="#ffc632" stroke-linejoin="round"/><path d="m318.093 372.805h1.482" stroke="#ffc632" stroke-linejoin="round"/><path d="m312.165 375.769c.567-.11 1.074-.164 1.647-.164" stroke="#ffc632" stroke-linejoin="round"/><path d="m308.707 376.757c.458-.082.875-.196 1.317-.329" stroke="#ffc632" stroke-linejoin="round"/><path d="m307.883 380.38c-.134.611-.3 1.229-.494 1.812" stroke="#ffc632" stroke-linejoin="round"/><path d="m311.835 379.722c.183.312.341.829.659.988" stroke="#ffc632" stroke-linejoin="round"/><path d="m313.812 383.015v1.811" stroke="#ffc632" stroke-linejoin="round"/><path d="m312.988 388.943c.099.505.165.971.165 1.482" stroke="#ffc632" stroke-linejoin="round"/><path d="m318.093 390.59c.064.16.776 1.647.658 1.647" stroke="#ffc632" stroke-linejoin="round"/><path d="m323.692 395.365c.263.344.539.663.823.988" stroke="#ffc632" stroke-linejoin="round"/><path d="m314.964 396.189c.111.339.167.989.494 1.152" stroke="#ffc632" stroke-linejoin="round"/><path d="m310.189 396.683c-.087.445-.165.865-.165 1.317" stroke="#ffc632" stroke-linejoin="round"/><path d="m307.554 392.237c-.108.337-.181 1.49-.494 1.646" stroke="#ffc632" stroke-linejoin="round"/><path d="m304.919 396.189c0 .582-.164 1.107-.164 1.646" stroke="#ffc632" stroke-linejoin="round"/><path d="m301.955 387.955c-.075.383-.165.761-.165 1.153" stroke="#ffc632" stroke-linejoin="round"/><path d="m308.377 385.65c-.135.48-.329.977-.329 1.482" stroke="#ffc632" stroke-linejoin="round"/><path d="m301.626 382.521c-.326.456-.824 1.053-.824 1.647" stroke="#ffc632" stroke-linejoin="round"/><path d="m297.344 384.662c-.526.526-.959 1.124-1.482 1.646" stroke="#ffc632" stroke-linejoin="round"/><path d="m294.051 390.755c-.207.498-.326 1.401-.823 1.152" stroke="#ffc632" stroke-linejoin="round"/><path d="m289.44 384.332c-.266.448-.512.902-.823 1.318" stroke="#ffc632" stroke-linejoin="round"/></g><path clip-rule="evenodd" d="m83.5439 87.9985c-2.2151 3.2936-5.5632 5.8951-9.8396 7.6075-1.7537-4.3571-.9059-9.3256 1.6918-13.1594 1.3936-1.8457 2.9504-3.5994 5.0342-4.646 2.0501-1.0766 4.2784-1.7237 6.5404-1.8006.0806 2.3802-.212 4.5728-.8534 6.5272l-.0208.0592-.0001.0001c-.6703 1.9091-1.3514 3.8488-2.5525 5.412zm-26.3227 13.1915c-1.8944-4.2992-2.005-10.1718.6377-15.5474 4.1771 2.0426 6.9999 5.9646 8.4911 10.1247.8703 2.1439 1.4142 4.3777 1.5549 6.6187.1369 2.244.2175 4.592-.3677 6.899-4.5596-.878-8.2434-3.689-10.316-8.095zm-6.9023 11.751c-.0412-1.409.0376-2.864.2457-4.335 4.5804.786 8.4142 3.751 11.0175 7.323 1.3899 1.808 2.5847 3.803 3.3462 5.913l.0712.211c.6943 2.051 1.4263 4.214 1.5043 6.514-4.6234.431-8.9524-1.24-12.186-4.886-1.5268-1.809-2.6428-4.087-3.393-6.676-.407-1.296-.5796-2.658-.6059-4.064zm23.7849 33.182c4.3177-1.709 7.6751-4.866 9.7533-8.002 1.1686-1.624 2.0351-3.277 2.4853-4.899.4351-1.624.8215-3.299.4989-4.942-4.6178.523-8.5623 2.47-11.1469 5.792-2.399 3.226-3.2749 7.812-1.5906 12.051zm-21.4123-5.502c-1.4536-2.273-2.217-5.036-2.6915-7.967 4.6178-.524 9.1344 1.254 12.6418 3.953 3.7156 2.713 6.5103 6.344 8.2603 10.761-4.3177 1.711-8.9505 1.322-13.0919-1.275-1.9244-1.326-3.6782-3.191-5.1187-5.472zm30.316 21.266c3.7025-2.866 5.9214-6.748 7.1481-10.408.6583-1.877 1.0128-3.689.9715-5.358.0694-1.732-.1256-3.386-.8834-4.873-4.2914 1.784-7.525 4.736-9.0612 8.63-.8478 1.973-.9022 3.953-.6771 6.071.1951 2.14 1.1329 4.132 2.5021 5.938zm-26.9454-6.221c1.266 2.695 2.8772 5.09 4.8054 6.927 2.0407 1.78 4.267 3.074 6.4991 3.803 4.5953 1.407 9.2787.404 12.9175-2.421-1.4405-1.9-3.2017-3.421-4.9423-4.824-1.7688-1.377-3.9801-2.35-5.9852-3.208-4.1527-1.609-9.0049-2.061-13.2945-.277zm13.8647-27.399c4.6234-.43 8.7405-2.521 11.6289-4.958 1.5268-1.234 2.8679-2.581 3.7476-4.017.0658-.117.1323-.233.1991-.35l.0005-.001c.3476-.61.7013-1.23.997-1.868.3358-.764.5608-1.555.664-2.388-4.5803-.786-8.9187-.019-12.3398 2.448-1.6149 1.226-2.8735 2.862-3.8132 4.773-.9885 1.912-1.1554 4.099-1.0841 6.361zm.9809-18.316c4.5597.878 9.1043.021 12.5686-1.504 3.6688-1.52 6.3172-3.701 7.7914-6.676-4.1714-2.0405-8.5697-2.5375-12.5461-1.136-1.8513.74-3.56 1.939-4.9967 3.513-1.4386 1.57-2.2545 3.61-2.8172 5.803zm36.6223 93.251c1.416.452 2.809.876 4.227.985 1.416.114 2.804.103 4.132-.025 1.33-.135 2.596-.354 3.791-.742 1.202-.437 2.322-.978 3.337-1.608 2.035-1.26 3.652-2.879 4.777-4.762 1.133-1.943 1.774-4.149 1.93-6.464-2.382-.084-4.655-.084-6.889.524-2.227.564-4.335 1.189-6.349 2.326-1.002.545-1.968 1.172-2.883 1.871-.902.657-1.748 1.372-2.525 2.176-1.549 1.604-2.813 3.513-3.548 5.719zm21.718-22.628c.566 2.05.868 4.262.71 6.586-2.265-.075-4.349-1.004-6.116-2.047-1.767-1.086-3.136-2.828-4.106-4.571-.482-.892-.857-1.834-1.12-2.811-.251-1.021-.386-2.09-.418-3.162-.062-2.152.31-4.365 1.045-6.569.601.186 1.151.494 1.694.797.178.099.356.198.534.293.719.386 1.388.879 2.02 1.467.632.579 1.221 1.286 1.784 2.014.572.679 1.107 1.44 1.6 2.275.983 1.668 1.808 3.618 2.373 5.728zm-43.0313 12.01c2.3595 1.819 5.1842 2.69 7.767 3.254 2.579.591 5.2255.33 7.5153-.281 4.598-1.18 8-4.556 9.566-8.932-4.447-1.635-9.097-1.802-13.512-.941-4.4659 1.037-8.6729 3.083-11.3363 6.9zm26.4783-21.859c.891 3.845 1.109 8.302-.456 12.672-4.269-1.566-7.212-5.122-7.973-9.189-.9-3.944.36-8.361 3.014-12.165l.096.08c1.259 1.052 2.448 2.046 3.267 3.557.831 1.572 1.587 3.138 2.052 5.045zm-44.1787 5.593c1.8981 2.279 4.2314 4.005 6.5441 5.267 2.3614 1.218 4.9591 1.722 7.2962 1.803 2.3483.077 4.584-.426 6.6116-1.493 2.0032-1.034 3.7138-2.53 5.0905-4.402-1.9901-1.325-3.9445-2.489-6.0846-3.262-1.071-.383-2.1813-.673-3.318-.878-1.0841-.259-2.1813-.446-3.303-.534-4.4696-.346-9.2713.62-12.8368 3.499zm30.5241-7.543c-.6208 2.029-1.568 4.077-2.9448 5.949-1.8944-1.253-3.1923-3.098-4.0513-5.015-.4352-.955-.7559-1.936-.9585-2.919-.15-1.037-.1669-2.091-.0806-3.119.3394-4.136 2.5771-7.864 6.2421-10.826 1.0822 1.279 1.8681 2.712 2.2451 4.445.4258 1.684.7036 3.421.5926 5.415-.1049 1.986-.4519 4.072-1.0446 6.07z" fill="url(#c)" fill-rule="evenodd"/><path clip-rule="evenodd" d="m291.298 87.9985c2.215 3.2936 5.563 5.8951 9.84 7.6075 1.753-4.3571.906-9.3256-1.692-13.1594-1.394-1.8457-2.95-3.5994-5.034-4.646-2.05-1.0766-4.279-1.7237-6.541-1.8006-.08 2.3802.212 4.5728.854 6.5272l.021.0593v.0001c.67 1.909 1.351 3.8488 2.552 5.4119zm26.323 13.1915c1.894-4.2992 2.005-10.1718-.638-15.5474-4.177 2.0426-7 5.9646-8.491 10.1247-.87 2.1439-1.414 4.3777-1.555 6.6187-.137 2.244-.217 4.592.368 6.899 4.56-.878 8.243-3.689 10.316-8.095zm6.902 11.751c.041-1.409-.037-2.864-.246-4.335-4.58.786-8.414 3.751-11.017 7.323-1.39 1.808-2.585 3.803-3.346 5.913l-.071.211c-.695 2.051-1.427 4.214-1.505 6.514 4.624.431 8.953-1.24 12.186-4.886 1.527-1.809 2.643-4.087 3.393-6.676.407-1.296.58-2.658.606-4.064zm-23.785 33.182c-4.317-1.709-7.675-4.866-9.753-8.002-1.169-1.624-2.035-3.277-2.485-4.899-.435-1.624-.822-3.299-.499-4.942 4.618.523 8.562 2.47 11.147 5.792 2.399 3.226 3.275 7.812 1.59 12.051zm21.413-5.502c1.453-2.273 2.217-5.036 2.691-7.967-4.618-.524-9.134 1.254-12.642 3.953-3.715 2.713-6.51 6.344-8.26 10.761 4.318 1.711 8.95 1.322 13.092-1.275 1.924-1.326 3.678-3.191 5.119-5.472zm-30.316 21.266c-3.703-2.866-5.922-6.748-7.148-10.408-.659-1.877-1.013-3.689-.972-5.358-.069-1.731.126-3.386.883-4.873 4.292 1.784 7.525 4.736 9.062 8.63.847 1.973.902 3.953.677 6.071-.195 2.14-1.133 4.132-2.502 5.938zm26.945-6.221c-1.266 2.695-2.877 5.09-4.805 6.927-2.041 1.78-4.267 3.074-6.499 3.803-4.596 1.407-9.279.404-12.918-2.421 1.441-1.9 3.202-3.421 4.942-4.824 1.769-1.377 3.98-2.35 5.985-3.208 4.153-1.609 9.005-2.061 13.295-.277zm-13.865-27.399c-4.623-.43-8.74-2.521-11.629-4.958-1.526-1.234-2.868-2.581-3.747-4.017-.066-.116-.132-.232-.198-.349l-.002-.002c-.347-.61-.701-1.23-.997-1.868-.336-.764-.561-1.555-.664-2.388 4.58-.786 8.919-.019 12.34 2.448 1.615 1.226 2.873 2.862 3.813 4.773.989 1.912 1.156 4.099 1.084 6.361zm-.981-18.316c-4.559.878-9.104.021-12.568-1.504-3.669-1.52-6.318-3.701-7.792-6.676 4.172-2.0405 8.57-2.5375 12.546-1.136 1.852.74 3.56 1.939 4.997 3.513 1.439 1.57 2.255 3.61 2.817 5.803zm-36.621 93.251c-1.417.452-2.81.876-4.228.985-1.416.114-2.804.103-4.132-.025-1.33-.135-2.596-.354-3.791-.742-1.202-.437-2.322-.978-3.337-1.608-2.035-1.26-3.652-2.879-4.777-4.762-1.133-1.943-1.774-4.149-1.93-6.464 2.382-.084 4.655-.084 6.889.524 2.227.564 4.335 1.189 6.349 2.326 1.002.545 1.968 1.172 2.883 1.871.902.657 1.748 1.372 2.525 2.176 1.549 1.604 2.813 3.513 3.549 5.719zm-21.719-22.628c-.566 2.05-.868 4.262-.71 6.586 2.265-.075 4.349-1.004 6.116-2.047 1.767-1.086 3.136-2.828 4.106-4.571.482-.892.857-1.834 1.12-2.811.251-1.02.386-2.09.418-3.162.062-2.152-.31-4.365-1.045-6.569-.601.186-1.151.494-1.694.797-.178.099-.356.199-.534.293-.719.386-1.388.879-2.02 1.467-.632.579-1.221 1.286-1.784 2.014-.572.679-1.107 1.44-1.6 2.275-.983 1.668-1.808 3.618-2.373 5.728zm43.031 12.01c-2.359 1.819-5.184 2.69-7.767 3.254-2.579.591-5.225.33-7.515-.281-4.598-1.18-8-4.556-9.566-8.932 4.447-1.635 9.097-1.802 13.512-.941 4.466 1.037 8.673 3.083 11.336 6.9zm-26.478-21.859c-.891 3.845-1.108 8.302.456 12.672 4.269-1.566 7.212-5.122 7.973-9.189.9-3.944-.36-8.361-3.014-12.165l-.096.08c-1.259 1.052-2.448 2.046-3.267 3.557-.831 1.572-1.587 3.138-2.052 5.045zm44.179 5.593c-1.898 2.279-4.232 4.005-6.544 5.267-2.362 1.218-4.96 1.722-7.297 1.803-2.348.077-4.584-.426-6.611-1.493-2.003-1.034-3.714-2.53-5.091-4.402 1.99-1.325 3.945-2.489 6.085-3.262 1.071-.383 2.181-.673 3.318-.878 1.084-.259 2.181-.446 3.303-.534 4.47-.346 9.271.62 12.837 3.499zm-30.524-7.543c.621 2.029 1.568 4.077 2.944 5.949 1.895-1.253 3.193-3.098 4.052-5.015.435-.955.756-1.936.958-2.919.15-1.037.167-2.091.081-3.119-.34-4.136-2.577-7.864-6.242-10.826-1.082 1.279-1.868 2.712-2.245 4.445-.426 1.684-.704 3.421-.593 5.415.105 1.986.452 4.072 1.045 6.07z" fill="url(#d)" fill-rule="evenodd"/><path d="m140.741 169.798h-10.002v-5.743l1.568 1.136h4.413l3.53-5.61h-9.462v-4.206h1.225v-14.29l-.686-1.603h19.808l1.177-3.072h-15.298l-.735 2.137h-5.639l2.746-7.211-.931-1.336h6.864l-.687 1.87h20.838l-2.795 7.612h3.089v15.893h1.177v4.206h-8.384l2.402 5.61h5.982v5.809c-.164-.49-.425-.801-.785-.935-.327-.178-.637-.267-.931-.267h-8.728l-4.069-9.148zm-11.866-27.645c-.163-.579-.425-.935-.784-1.068-.327-.178-.637-.267-.932-.267h-1.323v11.618l1.667-.467 1.372-1.87v7.746l-3.039.868v11.085h-7.502l1.226-1.803v-7.612l-2.991.801-1.569 1.402v-7.078l4.56-1.269v-13.421h-4.56v-5.743l1.52 1.068h3.04v-4.674l-.883-1.269h7.159v5.943h3.039zm24.564 2.003h-4.658v11.219h4.658zm-10.933 0h-4.217v11.219h4.217z" fill="url(#f)"/><path d="m208.794 136.477c-.131-.579-.327-.957-.589-1.135-.261-.178-.539-.245-.833-.2l-10.591.667-.049 6.211h13.287v5.609c-.196-.535-.425-.891-.686-1.069-.229-.178-.49-.267-.784-.267h-1.864l-.049 24.039h-6.177v-23.972h-3.727v23.972h-7.55l1.324-1.803v-37.728l1.52 1.069 16.768-1.069zm-30.105 3.005h7.159l-.883 1.269-1.127 2.671h4.657v5.609c-.163-.534-.375-.89-.637-1.068-.261-.179-.539-.268-.833-.268l-7.845.067v2.738h8.482v5.676c-.164-.579-.376-.957-.637-1.135-.229-.178-.491-.267-.785-.267h-7.06l-.049 15.558h-7.551l1.226-1.803.049-13.755h-8.384v-5.342l1.52 1.068h6.864l.049-2.738h-8.923v-5.475l1.52 1.135h2.402l-1.03-2.671-.931-1.269h7.158l1.471 3.94h2.55zm9.071-.868c-.131-.49-.327-.824-.588-1.002-.262-.222-.54-.333-.834-.333h-22.357v-5.409l1.569 1.202h7.256v-1.136l-.883-1.268h7.159v2.404h8.678zm-18.729 31.05h-4.854l1.863-10.684-.932-1.402h6.619zm11.522-12.086h6.324l-1.078 1.469 1.569 10.617h-4.952z" fill="url(#f)"/><path d="m258.951 137.813c-.131-.534-.376-.891-.735-1.069-.36-.178-.687-.267-.981-.267h-5.246l-1.52 3.406h8.384v19.565h-4.168v-14.958h-10.933v14.223l3.53-9.415-.883-1.269h7.208l-8.482 22.236h-5.737l4.07-10.817h-3.923v-18.23l-.882-1.335h6.275l1.422-3.406h-6.962v-5.742l1.569 1.135h17.994zm-29.565 2.337h7.453l-1.177 1.269-.736 2.871h2.305v5.208c-.131-.578-.392-.934-.785-1.068-.392-.178-.735-.267-1.029-.267h-16.474v22.102h-5.884l1.52-3.004v-24.106l1.569 1.135h.687l-.687-2.871-1.177-1.269h7.453l.98 4.14h5.002zm8.874-.601c-.163-.579-.441-.935-.833-1.069-.36-.178-.686-.267-.981-.267h-23.387v-5.075l1.569 1.136h7.943v-2.271l-.883-1.268h7.453v3.539h9.119zm-1.323 28.847c-.164-.534-.425-.868-.785-1.002-.359-.133-.703-.178-1.029-.133l-15.053 1.803v-5.075l1.618.934 15.249-1.802zm0-13.021c-.164-.49-.425-.802-.785-.935-.359-.134-.703-.178-1.029-.134l-15.053 1.803v-5.075l1.618 1.002 15.249-1.87zm0 6.477c-.164-.49-.425-.802-.785-.935-.359-.178-.703-.245-1.029-.2l-15.053 1.869v-5.008l1.618.868 15.249-1.803zm16.327 8.413-4.364-9.014h7.158l-.882 1.335 3.824 7.679z" fill="url(#f)"/><path d="m140.741 169.798h-10.002v-5.743l1.568 1.136h4.413l3.53-5.61h-9.462v-4.206h1.225v-14.29l-.686-1.603h19.808l1.177-3.072h-15.298l-.735 2.137h-5.639l2.746-7.211-.931-1.336h6.864l-.687 1.87h20.838l-2.795 7.612h3.089v15.893h1.177v4.206h-8.384l2.402 5.61h5.982v5.809c-.164-.49-.425-.801-.785-.935-.327-.178-.637-.267-.931-.267h-8.728l-4.069-9.148zm-11.866-27.645c-.163-.579-.425-.935-.784-1.068-.327-.178-.637-.267-.932-.267h-1.323v11.618l1.667-.467 1.372-1.87v7.746l-3.039.868v11.085h-7.502l1.226-1.803v-7.612l-2.991.801-1.569 1.402v-7.078l4.56-1.269v-13.421h-4.56v-5.743l1.52 1.068h3.04v-4.674l-.883-1.269h7.159v5.943h3.039zm24.564 2.003h-4.658v11.219h4.658zm-10.933 0h-4.217v11.219h4.217z" mask="url(#i)" stroke="#e75b4e" stroke-linecap="round" stroke-width="8"/><path d="m208.794 136.477c-.131-.579-.327-.957-.589-1.135-.261-.178-.539-.245-.833-.2l-10.591.667-.049 6.211h13.287v5.609c-.196-.535-.425-.891-.686-1.069-.229-.178-.49-.267-.784-.267h-1.864l-.049 24.039h-6.177v-23.972h-3.727v23.972h-7.55l1.324-1.803v-37.728l1.52 1.069 16.768-1.069zm-30.105 3.005h7.159l-.883 1.269-1.127 2.671h4.657v5.609c-.163-.534-.375-.89-.637-1.068-.261-.179-.539-.268-.833-.268l-7.845.067v2.738h8.482v5.676c-.164-.579-.376-.957-.637-1.135-.229-.178-.491-.267-.785-.267h-7.06l-.049 15.558h-7.551l1.226-1.803.049-13.755h-8.384v-5.342l1.52 1.068h6.864l.049-2.738h-8.923v-5.475l1.52 1.135h2.402l-1.03-2.671-.931-1.269h7.158l1.471 3.94h2.55zm9.071-.868c-.131-.49-.327-.824-.588-1.002-.262-.222-.54-.333-.834-.333h-22.357v-5.409l1.569 1.202h7.256v-1.136l-.883-1.268h7.159v2.404h8.678zm-18.729 31.05h-4.854l1.863-10.684-.932-1.402h6.619zm11.522-12.086h6.324l-1.078 1.469 1.569 10.617h-4.952z" mask="url(#i)" stroke="#e75b4e" stroke-linecap="round" stroke-width="8"/><path d="m258.951 137.813c-.131-.534-.376-.891-.735-1.069-.36-.178-.687-.267-.981-.267h-5.246l-1.52 3.406h8.384v19.565h-4.168v-14.958h-10.933v14.223l3.53-9.415-.883-1.269h7.208l-8.482 22.236h-5.737l4.07-10.817h-3.923v-18.23l-.882-1.335h6.275l1.422-3.406h-6.962v-5.742l1.569 1.135h17.994zm-29.565 2.337h7.453l-1.177 1.269-.736 2.871h2.305v5.208c-.131-.578-.392-.934-.785-1.068-.392-.178-.735-.267-1.029-.267h-16.474v22.102h-5.884l1.52-3.004v-24.106l1.569 1.135h.687l-.687-2.871-1.177-1.269h7.453l.98 4.14h5.002zm8.874-.601c-.163-.579-.441-.935-.833-1.069-.36-.178-.686-.267-.981-.267h-23.387v-5.075l1.569 1.136h7.943v-2.271l-.883-1.268h7.453v3.539h9.119zm-1.323 28.847c-.164-.534-.425-.868-.785-1.002-.359-.133-.703-.178-1.029-.133l-15.053 1.803v-5.075l1.618.934 15.249-1.802zm0-13.021c-.164-.49-.425-.802-.785-.935-.359-.134-.703-.178-1.029-.134l-15.053 1.803v-5.075l1.618 1.002 15.249-1.87zm0 6.477c-.164-.49-.425-.802-.785-.935-.359-.178-.703-.245-1.029-.2l-15.053 1.869v-5.008l1.618.868 15.249-1.803zm16.327 8.413-4.364-9.014h7.158l-.882 1.335 3.824 7.679z" mask="url(#i)" stroke="#e75b4e" stroke-linecap="round" stroke-width="8"/><path d="m136.458 80.5993h-6.167v20.7947l5.286-1.094 1.597-2.1892v7.6612l-12.169 2.189-1.762 1.642v-32.9124l-.991-1.4854h10.132l1.266-2.1889-1.211-1.0163h8.975l-2.147 3.6743h19.106v32.3647h-6.057c-.33 0-.715.104-1.156.313-.404.208-.679.625-.826 1.251v-6.88h1.046v-21.7328h-5.176v32.2088h12.445v6.801c-.184-.573-.478-.938-.881-1.094-.404-.209-.771-.313-1.102-.313h-45.702l1.377-2.189v-21.8893h-5.341v-6.7232l1.762 1.329h10.627v24.0785h19.767v-35.7267l-.44-.7817zm-14.426 5.1597h-7.048l-3.909-9.6938-.992-1.4854h7.709z" fill="url(#g)"/><path d="m213.271 72.9381v46.0459h-50.052v-44.2478l-.771-1.7981zm-6.993 5.4723h-36.011v35.6486h36.011zm-1.432 35.1006c-.184-.625-.477-1.042-.881-1.25-.404-.209-.771-.313-1.101-.313h-31.055v-6.723l1.706 1.329h10.958v-7.6615h-12.664v-6.6449l1.706 1.3289h10.958v-7.5048h-12.664v-6.645l1.706 1.329h31.331v6.8795c-.184-.6254-.477-1.0424-.881-1.2508-.404-.2085-.771-.3127-1.101-.3127h-11.398v7.5048h13.38v6.8795c-.184-.6775-.477-1.0944-.881-1.2508-.404-.2085-.771-.3127-1.101-.3127h-11.398v7.6615h5.451l-3.304-5.629h8.59l-.936 1.876 2.313 3.753h1.266z" fill="url(#g)"/><path d="m223.787 119.14h-6.662l4.185-38.9315-.991-1.6417h21.749v-4.1433l-.991-1.5636h8.039v5.7069h19.658v6.8795c-.184-.6255-.478-1.0163-.881-1.1727-.404-.2085-.753-.3127-1.047-.3127h-38.984zm44.876-19.2312c-.146-.6775-.44-1.0945-.881-1.2508-.403-.2085-.77-.3127-1.101-.3127h-15.693l-8.975 20.7947h-14.096v-6.723l1.762 1.329h6.883l6.663-15.4007h-14.537v-6.645l1.652 1.329h13.986v-4.7687l-.991-1.4854h8.039v6.2541h17.289zm-19.492 3.1272h8.59l-.991 1.485 4.35 9.147h5.947l1.762-1.329v6.723h-12.224z" fill="url(#g)"/><path d="m136.458 80.5993h-6.167v20.7947l5.286-1.094 1.597-2.1892v7.6612l-12.169 2.189-1.762 1.642v-32.9124l-.991-1.4854h10.132l1.266-2.1889-1.211-1.0163h8.975l-2.147 3.6743h19.106v32.3647h-6.057c-.33 0-.715.104-1.156.313-.404.208-.679.625-.826 1.251v-6.88h1.046v-21.7328h-5.176v32.2088h12.445v6.801c-.184-.573-.478-.938-.881-1.094-.404-.209-.771-.313-1.102-.313h-45.702l1.377-2.189v-21.8893h-5.341v-6.7232l1.762 1.329h10.627v24.0785h19.767v-35.7267l-.44-.7817zm-14.426 5.1597h-7.048l-3.909-9.6938-.992-1.4854h7.709z" mask="url(#j)" stroke="#e75b4e" stroke-linecap="round" stroke-width="8"/><path d="m213.271 72.9381v46.0459h-50.052v-44.2478l-.771-1.7981zm-6.993 5.4723h-36.011v35.6486h36.011zm-1.432 35.1006c-.184-.625-.477-1.042-.881-1.25-.404-.209-.771-.313-1.101-.313h-31.055v-6.723l1.706 1.329h10.958v-7.6615h-12.664v-6.6449l1.706 1.3289h10.958v-7.5048h-12.664v-6.645l1.706 1.329h31.331v6.8795c-.184-.6254-.477-1.0424-.881-1.2508-.404-.2085-.771-.3127-1.101-.3127h-11.398v7.5048h13.38v6.8795c-.184-.6775-.477-1.0944-.881-1.2508-.404-.2085-.771-.3127-1.101-.3127h-11.398v7.6615h5.451l-3.304-5.629h8.59l-.936 1.876 2.313 3.753h1.266z" mask="url(#j)" stroke="#e75b4e" stroke-linecap="round" stroke-width="8"/><path d="m223.787 119.14h-6.662l4.185-38.9315-.991-1.6417h21.749v-4.1433l-.991-1.5636h8.039v5.7069h19.658v6.8795c-.184-.6255-.478-1.0163-.881-1.1727-.404-.2085-.753-.3127-1.047-.3127h-38.984zm44.876-19.2312c-.146-.6775-.44-1.0945-.881-1.2508-.403-.2085-.77-.3127-1.101-.3127h-15.693l-8.975 20.7947h-14.096v-6.723l1.762 1.329h6.883l6.663-15.4007h-14.537v-6.645l1.652 1.329h13.986v-4.7687l-.991-1.4854h8.039v6.2541h17.289zm-19.492 3.1272h8.59l-.991 1.485 4.35 9.147h5.947l1.762-1.329v6.723h-12.224z" mask="url(#j)" stroke="#e75b4e" stroke-linecap="round" stroke-width="8"/><path d="m114.472 196.424v1.44h3.12c-.064.48-.144.944-.24 1.408h-2.288v7.904h1.488v-6.496h3.76v6.336h1.472v-7.744h-2.944c.096-.448.176-.928.24-1.408h3.072v-1.44zm5.28 10.528-1.024.992c1.12.992 2 1.92 2.624 2.784l1.088-1.088c-.736-.896-1.632-1.792-2.688-2.688zm-2.064-5.44v2.784c-.048 1.328-.304 2.4-.752 3.216-.48.784-1.36 1.424-2.64 1.936l.8 1.264c1.376-.544 2.384-1.28 2.992-2.24.624-1.056.96-2.448 1.024-4.176v-2.784zm-7.024-5.552c-.976 1.728-2.048 3.248-3.2 4.528l.864 1.216c1.184-1.344 2.192-2.784 3.056-4.288.672.816 1.52 2.016 2.512 3.584l1.008-1.072c-.992-1.376-2.016-2.704-3.104-3.968zm-2.272 6.928v1.424h4.256c-.544 1.024-1.072 1.904-1.616 2.64-.448-.384-.912-.768-1.392-1.152l-1.008.992c1.664 1.36 2.976 2.624 3.904 3.808l1.088-1.088c-.48-.544-1.008-1.104-1.584-1.648.832-1.088 1.584-2.32 2.24-3.696v-1.28zm2.928-3.392-1.088.672c.64.912 1.152 1.744 1.536 2.496l1.088-.768c-.352-.672-.864-1.472-1.536-2.4zm20.496 6.512c-.432.112-.88.224-1.344.336v-8.512h.976v.912h.64c.208 2.592.88 4.992 2 7.2-.816 1.344-1.84 2.512-3.088 3.488l1.04 1.184c1.12-.88 2.08-1.936 2.912-3.168.688 1.088 1.52 2.144 2.512 3.168l1.024-1.168c-1.072-1.024-1.984-2.16-2.72-3.408 1.04-2.048 1.728-4.496 2.08-7.36v-1.392h-6.272v-.88h-7.712v1.424h1.152v9.536l-1.344.16.368 1.488c1.712-.256 3.36-.544 4.96-.864v2.464h1.472v-2.768l1.344-.32zm1.664-7.264h2.944c-.272 2.112-.784 4-1.52 5.664-.768-1.712-1.232-3.6-1.424-5.664zm-4.48 7.936c-.816.16-1.648.32-2.496.464v-2.352h2.496zm-2.496-3.248v-2.112h2.496v2.112zm0-3.488v-2.112h2.496v2.112zm14.96 2.272v8.432h1.52v-10.624c.672-1.12 1.2-2.32 1.616-3.568l-1.424-.672c-.784 2.464-2.016 4.624-3.68 6.48l.496 1.616c.512-.544 1.008-1.088 1.472-1.664zm10.768.032-1.344.448c.736 1.792 1.408 3.84 2.016 6.16l1.328-.608c-.56-2.128-1.232-4.128-2-6zm-5.648-3.072h5.68c-.224.736-.512 1.408-.832 1.984l1.456.416c.384-.96.688-1.92.944-2.88v-.992h-6.72c.16-.48.304-.992.448-1.52l-1.424-.304c-.496 2.048-1.344 3.952-2.544 5.728l1.312.816c.64-.992 1.2-2.064 1.68-3.248zm1.84 11.36c1.024 0 1.536-.528 1.536-1.568v-8.624h-1.472v8.24c0 .416-.192.624-.576.624-.592 0-1.216-.048-1.872-.112l.336 1.44zm-2.544-8.128c-.64 2.288-1.392 4.176-2.24 5.664l1.424.512c.896-1.664 1.616-3.584 2.176-5.792zm15.728-3.888h-2.464c.304-.768.544-1.584.704-2.464l-1.52-.208c-.128.928-.352 1.808-.64 2.672h-1.52v11.6h1.456v-1.296h2.528v.832h1.456zm-3.984 8.896v-3.152h2.528v3.152zm0-4.512v-2.944h2.528v2.944zm6.864-.544-1.232.768c1.024 1.296 1.856 2.464 2.464 3.52l1.2-.848c-.56-.992-1.376-2.128-2.432-3.44zm5.376-3.824h-4.944c.256-.784.48-1.616.64-2.512l-1.504-.192c-.384 2.208-1.12 4.08-2.176 5.616l.912 1.2c.608-.8 1.12-1.68 1.568-2.64h4.016c-.032 4.56-.08 7.248-.176 8.048-.096.672-.464 1.008-1.104 1.008-.512 0-1.12-.032-1.824-.064l.368 1.392c.8.048 1.376.08 1.696.08 1.36 0 2.128-.576 2.288-1.728.16-1.28.24-4.688.24-10.208zm5.168.496v1.376h3.2v1.968h-2.688v1.344h2.688v2.224h-3.632v1.376h8.816v-1.376h-1.632l.864-.384c-.272-.608-.592-1.152-.96-1.664l-1.2.384c.32.48.624 1.024.912 1.664h-1.632v-2.224h2.688v-1.344h-2.688v-1.968h3.184v-1.376zm10.688-2.544h-13.44v14.128h1.536v-.608h10.368v.608h1.536zm-11.904 12.096v-10.656h10.368v10.656zm17.184-6.368v1.424h4.16c-.656 2.4-2.352 4.352-5.088 5.888l.864 1.264c2.752-1.664 4.56-3.744 5.424-6.24.928 2.56 2.608 4.592 5.056 6.096l.928-1.216c-2.416-1.392-4.08-3.328-4.976-5.792h4.48v-1.424h-4.896c-.032-.08-.048-.16-.064-.256.032-.688.064-1.504.064-2.432h-1.44c0 .448-.016 1.072-.016 1.888-.016.256-.032.528-.064.8zm4.608-6.4-1.68.288c.32.416.608.864.864 1.344h-5.888v4.832c-.048 3.12-.528 5.552-1.424 7.296l1.184 1.056c1.12-2.08 1.712-4.864 1.776-8.352v-3.376h11.728v-1.456h-5.712c-.272-.608-.56-1.152-.848-1.632zm8.16 4.8v1.456h4.08c-.336 1.104-.688 2.16-1.072 3.184h7.744c-.784.896-1.856 1.76-3.216 2.624-1.024-.352-2.096-.656-3.216-.944l-.8 1.184c2.496.64 4.944 1.536 7.328 2.656l.832-1.312c-.8-.352-1.632-.688-2.496-1.008 1.536-1.104 2.672-2.192 3.408-3.28v-1.312h-7.408c.192-.56.368-1.152.56-1.792h8.72v-1.456h-8.32c.128-.512.256-1.056.384-1.616h6.992v-1.424h-6.688c.096-.544.208-1.12.32-1.712l-1.568-.128c-.128.608-.24 1.232-.368 1.84h-4.128v1.424h3.808c-.128.544-.272 1.072-.4 1.616zm19.984 1.376v2.976h3.744v.688h-4.512v4.992h1.392v-3.776h3.12v1.152c-.768.064-1.568.112-2.384.176l.304 1.248c1.824-.192 3.568-.4 5.216-.64.064.16.128.352.192.544l-.416-.016.336 1.264h1.648c.96 0 1.44-.512 1.44-1.52v-3.424h-4.896v-.688h3.808v-2.976h-3.808v-.656c1.648-.064 3.104-.176 4.368-.32l-.624-1.088c-2.624.256-5.84.4-9.648.4l.384 1.12c1.44 0 2.8-.032 4.08-.064v.608zm5.088 4.88h1.024c.128.256.256.56.384.88l-1.408.16zm2.544-2.96h-2.448v-.816h2.448zm-3.888 0h-2.368v-.816h2.368zm3.488 5.44.896-.384c-.256-.72-.544-1.424-.864-2.096h1.456v1.92c0 .384-.176.592-.496.592zm1.088-11.744v.896h-9.472v-.896zm-9.472 2.016h10.912v-3.216h-12.384v4.816c-.016 3.328-.528 6.048-1.52 8.144l1.136 1.024c1.216-2.544 1.84-5.6 1.856-9.168zm13.472 3.6v1.488h6.48c-.224.512-.496.976-.8 1.424-.992 1.312-2.896 2.384-5.68 3.232l.816 1.28c2.752-.816 4.752-1.968 5.984-3.472.128-.176.256-.352.384-.544 2.384 1.424 4.256 2.752 5.616 4l1.088-1.072c-1.664-1.36-3.68-2.72-6.08-4.08.112-.256.224-.512.32-.768h5.808v-1.488h-5.392c.16-.768.256-1.6.288-2.496v-4.816h-1.52v4.816c-.048.896-.16 1.728-.336 2.496zm1.408-3.984-.8 1.184c1.232.528 2.432 1.248 3.6 2.144l.832-1.264c-1.104-.8-2.32-1.488-3.632-2.064zm1.76-2.56-.8 1.184c1.056.432 2.096 1.04 3.088 1.808l.816-1.216c-.944-.688-1.984-1.28-3.104-1.776zm17.2 3.328v2.752h2.4c-.784.64-1.84 1.104-3.184 1.376l.56 1.248c1.536-.336 2.768-.912 3.728-1.744.16.176.304.384.464.608-1.136.928-2.72 1.68-4.768 2.272l.736 1.248c1.904-.656 3.44-1.488 4.592-2.496.096.224.192.464.256.72-1.344 1.2-3.232 2.192-5.648 2.96l.768 1.296c2.08-.768 3.776-1.728 5.088-2.88 0 .064.016.144.016.224 0 .672-.096 1.12-.272 1.36-.192.224-.448.336-.752.368-.32.016-.736.032-1.216.032l.464 1.36c.336 0 .64-.016.928-.048.864-.096 1.472-.336 1.792-.704.384-.448.576-1.232.576-2.368-.032-.576-.112-1.136-.24-1.648l.448-.192c.48 1.536 1.264 2.944 2.32 4.224l1.008-1.248c-1.04-1.04-1.776-2.224-2.192-3.552.512-.288 1.008-.624 1.472-.992l-.992-1.136c-.688.64-1.536 1.184-2.528 1.632-.32-.688-.768-1.328-1.312-1.92h4.592v-3.76h-2.752c.32-.352.656-.736.992-1.184v-.96h-3.84l.576-.768-1.536-.352c-1.056 1.424-2.32 2.544-3.792 3.344l.928 1.12c.096-.064.192-.128.32-.192zm4.464-1.008h-3.056c.352-.304.72-.64 1.088-.992h3.056c-.352.352-.72.688-1.088.992zm3.168 2.528h-2.608c.16-.4.288-.832.4-1.296h2.208zm-4.176 0h-1.984v-1.296h2.496c-.112.464-.288.896-.512 1.296zm-6.592.624v8.48h1.52v-11.088c.48-.992.88-2.032 1.2-3.12l-1.408-.672c-.672 2.464-1.696 4.608-3.104 6.448l.496 1.632c.464-.544.896-1.104 1.296-1.68z" fill="#ffe6bf"/><path d="m68.5642 57.824c-2.4.4-11.6667-11.5-16-17.5-1.2-1.6357-1.8333 3.3185-2 6-.8333-2-2.4-4.3-2 2.5s9.5 15.1667 14 18.5h-6c3.9952 14.3981 9.9105 14.3924 22 11l-2.5-4.5c15.2817-.6087 21.2883-2.8158 25.4998-11.5-18.4998 2-24.1366-1-24.9998-3-.5-1.1585-1-3.5-.5-4s2.5 0 2.5 0c0-1-.5-3.1-2.5-3.5-2.5-.5-4.5 5.5-7.5 6z" fill="#fff"/><path d="m318.017 94c2.5 3.5 8.5 9 13.595 9.156 1.405-1.656.405-6.656 0-13.156 6.405 2 5.405 13 5.405 13s.678.257 1.5-.5c.369-.339 1-.848 2-.924s2.654.294 3 .924c.079.143-.187.549-.7 1.14-1.403 1.618-2.661 2.622-5.8 5.422-.282.251-.781.719-1.351 1.258-.964 1.476-1.623 3.241-1.649 4.68l-1.5-1.728c-2.025 1.764-7 3.728-7 3.728l2.5-3 1.887-3.5c-3.025 0-9.468-1.283-11.387-4-3.177-4.5-2.012-11.5-.5-12.5z" fill="#fff"/></g></svg>