<svg width="24" height="24" viewBox="0 0 24 24" fill="none" xmlns="http://www.w3.org/2000/svg">
<path d="M16.7235 5.982L15.3495 7.674L22.5 8.337L20.3625 1.5L18.663 3.594C16.8107 2.23034 14.5701 1.49643 12.27 1.5C6.3225 1.5 1.5 6.309 1.5 12.24C1.5 18.1725 6.3225 22.98 12.27 22.98C14.4495 22.9819 16.5783 22.3227 18.3753 21.0894C20.1723 19.8562 21.553 18.1068 22.335 16.0725C22.4069 15.8843 22.4411 15.6838 22.4354 15.4823C22.4298 15.2809 22.3845 15.0826 22.3022 14.8987C22.2199 14.7148 22.1021 14.549 21.9556 14.4106C21.8091 14.2723 21.6368 14.1642 21.4485 14.0925C21.0675 13.9469 20.6444 13.9583 20.2718 14.1242C19.8992 14.2901 19.6077 14.5969 19.461 14.9775C18.9026 16.4308 17.9164 17.6806 16.6328 18.5617C15.3491 19.4428 13.8284 19.9138 12.2715 19.9125C8.022 19.9125 4.5765 16.4775 4.5765 12.24C4.5765 8.004 8.022 4.569 12.2715 4.569C13.8975 4.569 15.441 5.073 16.7235 5.982" fill="#4D4D4D"/>
</svg>
